<svg version="1.2" xmlns="http://www.w3.org/2000/svg" viewBox="0 0 600 600" width="600" height="600">
	<title>New Project</title>
	<style>
		.s0 { fill: #1d4ed8 } 
		.s1 { fill: #868686 } 
	</style>
	<path id="Shortyy" class="s0" aria-label="Shortyy"  d="m94.8 242.8l-4 20.4q-7.3-3.6-14.4-5.4-7.1-1.8-13.8-1.8-9.3 0-14.5 2.9-5.2 2.9-5.2 8.1 0 3.3 2.3 5.1 2.3 1.8 9.4 3.6l10.2 2.5q12.8 3.2 18.7 9.3 6 6.1 6 15.8 0 15.6-11.9 25.1-11.9 9.5-31.9 9.5-9.4 0-18.7-1.8-9.2-1.7-18-5.1l3.9-21q8.6 5 16.7 7.4 8.1 2.5 15.9 2.5 8.6 0 13.8-3.5 5.4-3.5 5.4-8.9 0-3.5-2.4-5.5-2.4-2-10.4-4l-10.2-2.5q-11.2-2.8-16.7-8.8-5.4-6-5.4-15.5 0-15.1 11.4-24.1 11.6-9.1 31-9.1 7.8 0 16 1.3 8.3 1.1 16.8 3.5zm92.4 49.2l-8.6 44h-23.1l7.3-37.6q0.8-3.7 1.1-6.2 0.5-2.6 0.5-4.1 0-4.1-2.3-6.4-2.3-2.2-6.5-2.2-7.1 0-12.3 5.6-5.1 5.5-7.1 15.4l-6.9 35.5h-23.2l19.5-100.3h23.2l-7.5 38.7q6.3-6.3 12.8-9.3 6.4-3 13.5-3 9.9 0 15.4 5.2 5.4 5.2 5.4 14.7 0 2.1-0.4 4.6-0.2 2.5-0.8 5.4zm58.3-13.4q-8.9 0-14.7 8.1-5.8 8.1-5.8 20.7 0 6.8 3.1 10.4 3.1 3.6 9.1 3.6 9 0 14.8-8.2 5.8-8.1 5.8-20.8 0-6.7-3.2-10.3-3.1-3.5-9.1-3.5zm1.9-16.5q16.1 0 25.3 8.2 9.3 8.1 9.3 22.3 0 8.1-2.9 15.9-2.9 7.6-8.5 14-6.6 7.6-15.5 11.5-9 3.9-20 3.9-15.9 0-25.1-8.2-9.2-8.2-9.2-22.3 0-8.1 3-15.9 2.9-7.8 8.5-14.2 6.4-7.5 15.3-11.4 9-3.8 19.8-3.8zm111.3 0.5l-4.1 20.9q-2.4-1.4-5.3-2.1-2.9-0.7-6.2-0.7-8.9 0-14.7 5.7-5.8 5.6-7.9 16.3l-6.6 33.3h-23.1l14-72.2h23.2l-2.5 12.4q4.6-6.8 11.4-10.5 6.9-3.6 15.3-3.6 1.2 0 2.8 0.1 1.5 0.1 3.7 0.4zm17.4-19.3h23.2l-3.9 20.5h23.6l-3.3 16.5h-23.6l-5.9 30.6q-0.3 1-0.4 1.7-0.1 0.7-0.1 1.4 0 2.9 2 4.2 2 1.3 6.6 1.3h11.9l-3.3 16.5h-19.4q-10.4 0-15.9-4.4-5.5-4.4-5.5-12.6 0-1.8 0.2-3.9 0.2-2 0.6-4.2l5.9-30.6h-11.3l3.2-16.5h11.4z"/>
	<path id="Shortyy" class="s1" aria-label="Shortyy"  d="m441.1 336.9l-17.5-73.1h21.8l9.9 50 25.6-50h24.7l-45.7 79q-7.7 13.4-14.2 17.6-6.5 4.1-16.8 4.1h-14l2.4-15.2h7.3q5.7 0 8.8-1.8 3.1-2 5.6-6.7zm86 0l-17.5-73.1h21.8l10 50 25.5-50h24.7l-45.7 79q-7.6 13.3-14.1 17.5-6.6 4.2-16.9 4.2h-14l2.4-15.2h7.3q5.7 0 8.8-1.9 3.1-1.9 5.6-6.7z"/>
</svg>